<?xml version="1.0" standalone="no"?>
<svg viewBox="0 0 200 200" xmlns="http://www.w3.org/2000/svg">
  <mask id="mask0" mask-type="alpha">
    <path d="M49,-68.4C60.4,-59.2,64.4,-40.7,67.2,-23.8C70.1,-6.8,71.8,8.5,67.8,22.3C63.7,36.1,53.9,48.4,41.6,57.1C29.3,65.9,14.7,71.3,-1,72.7C-16.6,74,-33.2,71.3,-44.7,62.3C-56.2,53.2,-62.6,37.8,-69.9,21.3C-77.3,4.8,-85.5,-12.8,-81.1,-26.3C-76.6,-39.7,-59.5,-49,-43.8,-56.8C-28.2,-64.6,-14.1,-70.9,2.4,-74.2C18.8,-77.4,37.7,-77.6,49,-68.4Z" transform="translate(100 100)" />
  </mask>
  <g mask="url(#mask0)">
    <path d="M49,-68.4C60.4,-59.2,64.4,-40.7,67.2,-23.8C70.1,-6.8,71.8,8.5,67.8,22.3C63.7,36.1,53.9,48.4,41.6,57.1C29.3,65.9,14.7,71.3,-1,72.7C-16.6,74,-33.2,71.3,-44.7,62.3C-56.2,53.2,-62.6,37.8,-69.9,21.3C-77.3,4.8,-85.5,-12.8,-81.1,-26.3C-76.6,-39.7,-59.5,-49,-43.8,-56.8C-28.2,-64.6,-14.1,-70.9,2.4,-74.2C18.8,-77.4,37.7,-77.6,49,-68.4Z" transform="translate(100 100)" />
  </g>
</svg>

